<svg width="100" height="100" viewBox="0 0 100 100" fill="none" xmlns="http://www.w3.org/2000/svg">
<path d="M50 0C77.6142 0 100 22.3858 100 50C100 75.7286 80.5669 96.9175 55.5781 99.6914V56.874H68.6953V43.1562H55.5781V38.7412C55.5781 36.5123 56.1069 34.7835 57.1641 33.5547C58.2214 32.2973 60.0939 31.668 62.7803 31.668C63.8661 31.668 64.9235 31.7678 65.9521 31.9678C67.0094 32.1678 67.895 32.3827 68.6094 32.6113L71.8672 18.8936C70.7241 18.5507 68.9808 18.1649 66.6377 17.7363C64.323 17.3077 61.7653 17.0938 58.9648 17.0938C54.8211 17.0938 51.1202 17.8794 47.8623 19.4512C44.6044 21.023 42.0326 23.3808 40.1465 26.5244C38.2889 29.668 37.3594 33.6259 37.3594 38.3984V43.1562H28.0576V56.874H37.3594V98.3877C15.8655 92.7883 0 73.2473 0 50C0 22.3858 22.3858 0 50 0Z" fill="white"/>
</svg>
