<svg width="59" height="59" viewBox="0 0 59 59" fill="none" xmlns="http://www.w3.org/2000/svg">
<path fill-rule="evenodd" clip-rule="evenodd" d="M13.4041 0.158072C7.03066 1.17437 1.95487 5.9539 0.34395 12.4559C0.0690415 13.5656 0.063195 13.8583 0.0185505 28.479C-0.0310102 44.7128 -0.0348631 44.6119 0.72303 47.0426C1.12603 48.3354 1.99513 50.1314 2.79249 51.3191C3.63635 52.5763 5.8509 54.7248 7.22239 55.6167C8.6441 56.5414 10.3488 57.3012 12.0753 57.7798L13.3376 58.1296L28.4184 58.171C39.1318 58.2004 43.8033 58.1687 44.5495 58.0619C50.4684 57.2147 55.472 53.0274 57.3815 47.3234C58.196 44.8906 58.1814 45.2242 58.1814 29.0646C58.1814 15.1143 58.1678 14.2574 57.9281 13.0257C56.6931 6.67819 52.0991 1.90691 45.6916 0.316707C44.5802 0.0409245 44.3222 0.0358716 29.5478 0.00728271C17.4535 -0.0162532 14.3138 0.0130003 13.4041 0.158072ZM15.7957 5.3389C10.8306 6.34656 6.87799 10.0632 5.53998 14.9824L5.23252 16.1126V29.2103V42.308L5.59858 43.4758C7.1141 48.3108 10.8703 51.8014 15.672 52.8371C16.7091 53.0608 17.7043 53.0787 29.0828 53.0787C40.4613 53.0787 41.4565 53.0608 42.4935 52.8371C45.5926 52.1687 48.4647 50.3436 50.3709 47.8318C51.2295 46.7002 52.2595 44.5802 52.6022 43.2388C53.0865 41.3437 53.1491 39.3703 53.1041 27.4152L53.0611 15.9797L52.7547 14.9159C52.1617 12.858 51.1063 10.9515 49.6846 9.37007C48.2124 7.73266 45.6528 6.17171 43.3663 5.51709L42.3034 5.21272L29.4814 5.18825C19.3177 5.1687 16.4803 5.19995 15.7957 5.3389ZM43.4778 10.0466C41.1568 11.1306 40.5916 14.1463 42.3747 15.9309C43.7893 17.3464 45.9779 17.2853 47.3252 15.7929C47.9746 15.0736 48.2366 14.4149 48.256 13.4532C48.2867 11.9234 47.6139 10.7112 46.4095 10.126C45.6477 9.75595 44.185 9.71632 43.4778 10.0466ZM26.174 14.3326C20.4867 15.5273 16.1688 19.6968 14.6331 25.4773C14.3417 26.5738 14.2931 27.0456 14.2826 28.8779C14.2696 31.1249 14.3699 31.834 14.9594 33.6649C16.3902 38.1083 19.95 41.7932 24.233 43.2642C31.9678 45.9209 40.3595 41.6894 43.0489 33.7763C43.6743 31.9359 43.872 30.4928 43.7925 28.346C43.6447 24.3525 42.1623 21.0027 39.3362 18.2764C37.0634 16.0837 34.5188 14.7542 31.6231 14.2468C30.0632 13.9734 27.7076 14.0105 26.174 14.3326ZM27.0706 19.4296C22.2154 20.4457 18.8493 24.7777 19.1633 29.6066C19.3419 32.3519 20.3233 34.4332 22.3306 36.3228C23.5895 37.5082 25.2061 38.3632 26.8702 38.7238C28.4668 39.0698 30.5291 38.9497 32.0406 38.4229C33.6968 37.8456 34.5615 37.2902 35.9286 35.9254C37.3198 34.5368 38.0685 33.2204 38.536 31.3412C39.1093 29.0368 38.6769 26.1747 37.4358 24.0562C37.1899 23.6364 36.4504 22.7523 35.7927 22.0914C33.9309 20.2205 32.0559 19.4085 29.3485 19.3005C28.4587 19.2651 27.6337 19.3118 27.0706 19.4296Z" fill="white"/>
</svg>
