<svg width="58" height="58" viewBox="0 0 58 58" fill="none" xmlns="http://www.w3.org/2000/svg">
<path fill-rule="evenodd" clip-rule="evenodd" d="M12.0896 0.118009C8.26125 0.409557 6.04575 1.34608 3.73515 3.64933C1.47245 5.90481 0.582426 7.81327 0.173303 11.2871C-0.0577678 13.248 -0.0577678 44.7501 0.173303 46.711C0.58161 50.178 1.5814 52.3053 3.8194 54.4691C5.66459 56.2531 7.35166 57.1455 9.73252 57.5967C11.7872 57.9861 14.2002 58.0317 30.3122 57.9852C44.6533 57.9439 46.2802 57.9203 47.4272 57.7372C50.5306 57.2417 52.4405 56.2496 54.5263 54.0495C56.2597 52.2209 57.159 50.455 57.5746 48.0629C57.9566 45.8646 58.0029 43.3833 57.9569 27.6008C57.9172 13.9421 57.8884 11.8906 57.721 10.7829C57.2301 7.53652 56.2223 5.53495 54.0179 3.42886C51.7333 1.24621 49.5675 0.402099 45.497 0.107871C43.4246 -0.0419816 14.0725 -0.0330084 12.0896 0.118009ZM11.3469 13.2972C12.1584 14.3288 16.9084 20.5393 22.8924 28.392C23.7367 29.5002 24.4255 30.4702 24.4229 30.5477C24.4204 30.6253 23.5421 31.6883 22.4711 32.9099C14.2778 42.2565 11.6097 45.3172 11.6097 45.3692C11.6097 45.4022 12.8373 45.4293 14.3377 45.4293H17.0658L17.7461 44.6815C18.1204 44.2703 20.3667 41.704 22.738 38.9788C25.1093 36.2535 27.0814 34.0207 27.1204 34.0168C27.1594 34.0129 29.152 36.5783 31.5484 39.7177L35.9054 45.4256L41.5247 45.4275L47.1439 45.4293L44.1739 41.4965C42.5403 39.3335 39.4611 35.2587 37.3311 32.4414C35.2011 29.6241 33.3183 27.132 33.147 26.9034L32.8357 26.4876L34.3028 24.8011C35.1098 23.8735 37.7406 20.8669 40.1492 18.1196C42.5577 15.3725 44.6245 12.9997 44.7419 12.8468L44.9556 12.5689L42.1784 12.5702L39.4012 12.5714L34.8733 17.7556C32.3831 20.6069 30.302 22.9397 30.2488 22.9397C30.1956 22.9397 28.3897 20.6063 26.2357 17.7543L22.3194 12.5689H16.5467H10.774L11.3469 13.2972ZM17.4371 15.8025C17.438 15.8744 23.1527 23.3892 29.2469 31.3322C29.961 32.263 32.0921 35.0545 33.9827 37.5355L37.4203 42.0465L38.967 42.0483L40.5139 42.05L36.9278 37.2999C34.9556 34.6873 30.484 28.7642 26.9912 24.1372L20.6405 15.7246L19.0383 15.7198C18.1571 15.7172 17.4365 15.7544 17.4371 15.8025Z" fill="white"/>
</svg>
