<svg width="54" height="38" viewBox="0 0 54 38" fill="none" xmlns="http://www.w3.org/2000/svg">
<path fill-rule="evenodd" clip-rule="evenodd" d="M15.8064 0.0825227C12.4373 0.219041 11.624 0.260835 10.0689 0.377554C9.21811 0.441397 8.40811 0.508447 8.26889 0.52656C6.35606 0.775521 5.95444 0.835596 5.85803 0.887177C5.79593 0.920421 5.69113 0.947645 5.62521 0.947645C5.44386 0.947645 4.66705 1.27997 4.30328 1.51324C4.21047 1.57269 4.09656 1.63924 4.05016 1.66101C3.67182 1.83864 2.6087 2.75546 2.40744 3.07766C2.34236 3.18183 2.18919 3.38248 2.06712 3.52355C1.945 3.66463 1.80416 3.8705 1.75415 3.98103C1.70414 4.09156 1.62185 4.24529 1.57134 4.32264C1.52077 4.39998 1.43285 4.58982 1.37593 4.74451C1.319 4.8992 1.2429 5.07638 1.20684 5.13826C0.908547 5.64996 0.354598 8.93253 0.200586 11.1007C0.154461 11.7504 0.0903927 12.687 0.0582741 13.182C0.0254242 13.6874 -0.000112129 16.1463 3.70274e-07 18.7914C0.00016912 22.8773 0.015188 23.7412 0.113738 25.3164C0.253294 27.547 0.273374 27.7222 0.706666 30.4788C0.824735 31.23 1.1079 32.3214 1.2186 32.452C1.26005 32.5008 1.29391 32.571 1.29391 32.6078C1.29391 32.6447 1.39747 32.8907 1.52403 33.1547C1.95676 34.057 2.8819 35.1329 3.6973 35.682C3.85801 35.7903 4.01269 35.8788 4.04104 35.8788C4.06939 35.8788 4.12587 35.9188 4.16653 35.9678C4.2891 36.1155 5.40999 36.61 5.62228 36.61C5.68657 36.61 5.78316 36.6354 5.83687 36.6664C5.94718 36.73 6.8024 36.8876 7.22827 36.9227C7.38296 36.9355 7.73733 36.9724 8.01577 37.0047C8.82031 37.0982 11.5166 37.2933 12.6845 37.3426C17.7835 37.5581 18.0969 37.5629 27.0282 37.5622C35.9666 37.5616 36.0849 37.5598 41.3157 37.3426C42.5158 37.2929 45.1651 37.1001 45.9563 37.005C46.2192 36.9734 46.5736 36.9369 46.7438 36.9239C47.1548 36.8925 48.0282 36.7315 48.1545 36.6639C48.2099 36.6343 48.309 36.61 48.375 36.61C48.593 36.61 49.6771 36.1374 49.8192 35.9804C49.8698 35.9245 49.9357 35.8788 49.9656 35.8788C50.0761 35.8788 50.7774 35.3368 51.1641 34.9528C52.1214 34.0017 52.7588 32.8536 53.0698 31.5194C53.1203 31.3029 53.1744 31.0751 53.19 31.0132C53.2056 30.9513 53.2422 30.7488 53.2713 30.5632C53.3005 30.3776 53.3765 29.9346 53.4403 29.5788C53.5524 28.954 53.5782 28.7659 53.7109 27.6101C53.7446 27.3162 53.8234 26.2587 53.8861 25.2601C53.9851 23.6812 54 22.8289 54 18.7214C54 14.6291 53.985 13.7598 53.8874 12.212C53.8255 11.2296 53.7479 10.1979 53.715 9.91949C53.6821 9.64106 53.6424 9.23606 53.6266 9.0195C53.6109 8.80293 53.5751 8.56247 53.5471 8.48512C53.5191 8.40778 53.4559 8.09137 53.4066 7.782C53.3573 7.47263 53.3048 7.14356 53.2898 7.05075C53.2407 6.74689 53.0342 5.81995 52.945 5.50388C52.7723 4.8911 52.1723 3.74962 51.75 3.23004C51.1548 2.49778 49.961 1.5489 49.275 1.26281C49.1358 1.20476 48.9146 1.1101 48.7834 1.05244C48.6523 0.994783 48.4924 0.947645 48.4282 0.947645C48.3639 0.947645 48.268 0.924414 48.2149 0.896008C48.1618 0.867602 47.8154 0.803589 47.4451 0.753752C47.0749 0.703915 46.4935 0.625221 46.1531 0.578872C45.3721 0.472447 42.7891 0.27816 41.3157 0.214935C36.2778 -0.0011768 36.0069 -0.00517056 26.7751 0.00169192C20.286 0.00647315 17.1042 0.0299291 15.8064 0.0825227ZM20.0626 9.42264C20.0027 9.48254 20.0176 27.0363 20.0776 27.0734C20.1064 27.0912 20.2442 27.0421 20.3837 26.9642C20.5233 26.8863 20.6768 26.8226 20.725 26.8226C20.7732 26.8226 20.8126 26.8019 20.8126 26.7766C20.8126 26.7514 21.0341 26.624 21.3048 26.4937C21.5755 26.3633 21.8349 26.2329 21.8813 26.2039C21.9278 26.1748 22.067 26.0994 22.1907 26.0362C22.3145 25.973 22.7954 25.7218 23.2595 25.4778C23.7235 25.2338 24.4323 24.8665 24.8345 24.6614C25.2367 24.4563 25.9707 24.0758 26.4657 23.816C27.4114 23.3194 28.1821 22.9213 29.6719 22.1598C30.1669 21.9068 30.5804 21.6754 30.5907 21.6456C30.601 21.6157 30.639 21.5911 30.6751 21.5908C30.7112 21.5904 31.0571 21.4288 31.4438 21.2315C31.8305 21.0342 32.514 20.6864 32.9626 20.4586C33.4112 20.2308 33.7908 20.0287 33.8063 20.0095C33.8218 19.9903 34.1635 19.8088 34.5657 19.6063C36.6396 18.5618 37.0969 18.3198 37.0969 18.267C37.0969 18.1996 37.0086 18.1491 36.2532 17.7846C35.9438 17.6353 35.678 17.4974 35.6626 17.478C35.6178 17.422 34.1687 16.6976 34.1014 16.6976C34.068 16.6976 34.0323 16.675 34.0219 16.6474C34.0116 16.6198 33.6362 16.409 33.1876 16.1789C32.739 15.9489 32.2805 15.7081 32.1687 15.6438C31.8668 15.4702 31.7854 15.4272 31.4157 15.2458C31.1304 15.106 30.3239 14.6863 29.9923 14.5051C29.9399 14.4765 29.7957 14.4094 29.6719 14.356C29.5482 14.3026 29.3837 14.2157 29.3063 14.163C29.229 14.1102 28.802 13.8806 28.3576 13.6526C27.9131 13.4247 27.2044 13.0585 26.7826 12.8387C26.3608 12.619 25.6487 12.2526 25.2001 12.0245C24.7515 11.7964 24.3718 11.5934 24.3563 11.5735C24.3409 11.5535 23.988 11.3684 23.5722 11.1622C23.1563 10.956 22.7882 10.7641 22.7541 10.7358C22.7199 10.7075 22.3514 10.5141 21.9351 10.3059C21.5188 10.0978 21.0569 9.8561 20.9086 9.76886C20.7602 9.68156 20.6084 9.60956 20.5711 9.60888C20.5338 9.60821 20.4399 9.55814 20.3626 9.49762C20.2152 9.38231 20.1254 9.35986 20.0626 9.42264Z" fill="white"/>
</svg>
